<svg width="23" height="27" viewBox="0 0 23 27" fill="none" xmlns="http://www.w3.org/2000/svg">
<path d="M0 17.241C0 12.1147 4.15569 7.95898 9.282 7.95898H12.7955C17.9218 7.95898 22.0775 12.1147 22.0775 17.241C22.0775 22.3673 17.9218 26.523 12.7955 26.523H9.282C4.15569 26.523 0 22.3673 0 17.241Z" fill="#853FFC"/>
<path d="M11.0381 1.22754C15.3084 1.22754 18.5655 4.34807 18.5655 7.95605C18.5654 11.564 15.3084 14.6846 11.0381 14.6846C6.76785 14.6846 3.51081 11.564 3.51077 7.95605C3.51077 4.34807 6.76783 1.22754 11.0381 1.22754Z" stroke="#853FFC" stroke-width="2.45556"/>
<path d="M9.38892 19.3415C10.0655 17.4265 12.7738 17.4265 13.4504 19.3415C13.9455 20.7429 12.9059 22.2128 11.4197 22.2128C9.93336 22.2128 8.89379 20.7429 9.38892 19.3415Z" fill="white"/>
<path d="M14.4648 15.5831C14.4648 17.2309 13.1015 18.5666 11.4197 18.5666C9.73785 18.5666 8.37448 17.2309 8.37448 15.5831C8.37448 13.9354 9.73785 12.5996 11.4197 12.5996C13.1015 12.5996 14.4648 13.9354 14.4648 15.5831Z" fill="white"/>
</svg>
