<svg width="64" height="64" viewBox="0 0 64 64" fill="none" xmlns="http://www.w3.org/2000/svg">
<path d="M6.66672 31.9993C6.66672 20.0571 6.66672 14.086 10.3767 10.376C14.0867 6.66602 20.0578 6.66602 32 6.66602C43.9422 6.66602 49.9134 6.66602 53.6235 10.376C57.3334 14.086 57.3334 20.0571 57.3334 31.9993C57.3334 43.9415 57.3334 49.9127 53.6235 53.6228C49.9134 57.3327 43.9422 57.3327 32 57.3327C20.0578 57.3327 14.0867 57.3327 10.3767 53.6228C6.66672 49.9127 6.66672 43.9415 6.66672 31.9993Z" stroke="#3DF2FD" stroke-width="4.61017"/>
<path d="M45.4323 32.0732H26.8307M26.8307 32.0732C26.8307 33.5946 32.5781 38.7063 32.5781 38.7063M26.8307 32.0732C26.8307 30.5124 32.5781 25.5016 32.5781 25.5016M18.7656 21.3203V42.6538" stroke="#3DF2FD" stroke-width="4.61017" stroke-linecap="round"/>
</svg>
