<svg width="288" height="185" viewBox="0 0 288 185" fill="none" xmlns="http://www.w3.org/2000/svg">
<g filter="url(#filter0_f_2107_86)">
<path d="M258.993 81.3581C258.993 116.277 184.421 156.627 145.253 156.627C106.085 156.627 28.1674 132 28.1674 97.081C28.1674 62.1622 106.085 28.168 145.253 28.168C184.421 28.168 258.993 46.4394 258.993 81.3581Z" fill="#05166C"/>
</g>
<path d="M84.7113 102.277H67.9554L80.6668 47.3867H136.712H141.912H143.646C143.646 47.3867 145.379 47.3867 145.379 47.9645V50.2757V57.2091C145.379 59.9168 145.668 61.4503 145.379 64.1426C145.134 66.4306 144.985 67.749 144.224 69.9205C143.187 72.8787 142.318 74.5627 140.179 76.854C137.958 79.2326 133.246 81.4763 133.246 81.4763H122.268L143.068 102.277H119.956L97.4227 78.5873V71.6539H121.112L125.157 68.7649L126.89 60.0981H95.1115L84.7113 102.277Z" fill="url(#paint0_linear_2107_86)" stroke="black" stroke-width="1.15558"/>
<path d="M195.266 71.6545L193.533 63.5654L189.488 70.4989H177.355L185.444 76.2768L184.288 83.7881L191.222 80.3213L197 83.7881V75.1212L205.089 71.6545H195.266Z" fill="white"/>
<path d="M158.866 101.7H200.466C200.466 101.7 206.022 100.116 208.555 97.655C210.405 95.8583 211.083 94.2627 211.977 92.16C212.17 91.7064 212.373 91.2293 212.6 90.7215C213.764 88.1155 214.341 86.5847 214.911 83.7881C215.858 79.1451 214.911 71.6545 214.911 71.6545H205.089L197 75.1212V83.7881L194.111 88.4104H163.488L165.799 76.2768L168.11 63.5654C168.11 63.5654 169.463 60.0987 171.577 58.9431C173.691 57.7875 217.8 58.9431 217.8 58.9431C217.8 58.9431 221.648 53.743 222.422 50.2763C223.197 46.8095 222.225 45.0753 220.492 45.0762C218.759 45.0771 162.332 45.0762 162.332 45.0762C162.332 45.0762 156.741 46.6233 154.243 49.1207C152.247 51.1171 151.63 52.9702 150.846 55.3285C150.649 55.9203 150.441 56.544 150.199 57.2097C148.887 60.8105 148.369 63.2354 147.639 66.6524C147.535 67.1417 147.426 67.6514 147.31 68.1877C146.429 72.2541 146.09 74.4591 145.576 78.5879C144.908 83.9619 146.154 92.4549 146.154 92.4549L146.732 94.7661C148.116 97.104 149.04 98.5418 151.354 99.9662C153.918 101.544 158.866 101.7 158.866 101.7Z" fill="url(#paint1_linear_2107_86)"/>
<path d="M197 83.7881L191.222 80.3213L184.288 83.7881L185.444 76.2768L177.355 70.4989H189.488L193.533 63.5654L195.266 71.6545H205.089M197 83.7881V75.1212L205.089 71.6545M197 83.7881L194.111 88.4104H163.488L165.799 76.2768L168.11 63.5654C168.11 63.5654 169.463 60.0987 171.577 58.9431C173.691 57.7875 217.8 58.9431 217.8 58.9431C217.8 58.9431 221.648 53.743 222.422 50.2763C223.197 46.8095 222.225 45.0753 220.492 45.0762C218.759 45.0771 162.332 45.0762 162.332 45.0762C162.332 45.0762 156.741 46.6233 154.243 49.1207C152.247 51.1171 151.63 52.9702 150.846 55.3285C150.649 55.9203 150.441 56.544 150.199 57.2097C148.887 60.8105 148.369 63.2354 147.639 66.6524C147.535 67.1417 147.426 67.6514 147.31 68.1877C146.429 72.2541 146.09 74.4591 145.576 78.5879C144.908 83.9619 146.154 92.4549 146.154 92.4549L146.732 94.7661C148.116 97.104 149.04 98.5418 151.354 99.9662C153.918 101.544 158.866 101.7 158.866 101.7H200.466C200.466 101.7 206.022 100.116 208.555 97.655C210.405 95.8583 211.083 94.2627 211.977 92.16C212.17 91.7064 212.373 91.2293 212.6 90.7215C213.764 88.1155 214.341 86.5847 214.911 83.7881C215.858 79.1451 214.911 71.6545 214.911 71.6545H205.089" stroke="black" stroke-width="1.15558"/>
<path d="M197 83.7881L191.222 80.3213L184.288 83.7881L185.444 76.2768L177.355 70.4989H189.488L193.533 63.5654L195.266 71.6545H205.089M197 83.7881V75.1212L205.089 71.6545M197 83.7881L194.111 88.4104H163.488L165.799 76.2768L168.11 63.5654C168.11 63.5654 169.463 60.0987 171.577 58.9431C173.691 57.7875 217.8 58.9431 217.8 58.9431C217.8 58.9431 221.648 53.743 222.422 50.2763C223.197 46.8095 222.225 45.0753 220.492 45.0762C218.759 45.0771 162.332 45.0762 162.332 45.0762C162.332 45.0762 156.741 46.6233 154.243 49.1207C152.247 51.1171 151.63 52.9702 150.846 55.3285C150.649 55.9203 150.441 56.544 150.199 57.2097C148.887 60.8105 148.369 63.2354 147.639 66.6524C147.535 67.1417 147.426 67.6514 147.31 68.1877C146.429 72.2541 146.09 74.4591 145.576 78.5879C144.908 83.9619 146.154 92.4549 146.154 92.4549L146.732 94.7661C148.116 97.104 149.04 98.5418 151.354 99.9662C153.918 101.544 158.866 101.7 158.866 101.7H200.466C200.466 101.7 206.022 100.116 208.555 97.655C210.405 95.8583 211.083 94.2627 211.977 92.16C212.17 91.7064 212.373 91.2293 212.6 90.7215C213.764 88.1155 214.341 86.5847 214.911 83.7881C215.858 79.1451 214.911 71.6545 214.911 71.6545H205.089" stroke="#3DF2FD" stroke-width="1.15558"/>
<g filter="url(#filter1_d_2107_86)">
<path d="M70.4206 130.75L70.4046 110.043L79.368 110.036C81.2219 110.034 82.8195 110.339 84.1611 110.949C85.5026 111.54 86.5386 112.397 87.2692 113.52C87.9997 114.644 88.3656 115.985 88.3668 117.543C88.368 119.081 88.0042 120.412 87.2754 121.537C86.5465 122.642 85.5118 123.491 84.1712 124.083C82.8306 124.676 81.2334 124.973 79.3796 124.975L73.0785 124.979L75.2068 122.878L75.2129 130.746L70.4206 130.75ZM83.5847 130.74L78.402 123.23L83.5197 123.226L88.7615 130.736L83.5847 130.74ZM75.2073 123.41L73.0756 121.163L79.1104 121.159C80.5895 121.158 81.6936 120.841 82.4228 120.21C83.152 119.558 83.5162 118.67 83.5153 117.546C83.5145 116.402 83.1489 115.515 82.4187 114.885C81.6886 114.254 80.5839 113.94 79.1048 113.941L73.07 113.945L75.1982 111.666L75.2073 123.41ZM96.5721 118.365L106.541 118.357L106.544 122.084L96.575 122.092L96.5721 118.365ZM96.9337 126.884L108.204 126.875L108.207 130.721L92.1739 130.733L92.1579 110.026L107.807 110.014L107.81 113.859L96.9236 113.868L96.9337 126.884ZM117.944 130.713L108.994 110.013L114.171 110.009L121.995 128.344L118.948 128.346L126.862 109.999L131.624 109.995L122.677 130.71L117.944 130.713ZM133.369 130.702L133.353 109.994L138.146 109.99L138.162 130.698L133.369 130.702ZM147.474 118.325L157.443 118.318L157.446 122.045L147.477 122.053L147.474 118.325ZM147.836 126.845L159.107 126.836L159.11 130.682L143.076 130.694L143.06 109.987L158.709 109.974L158.712 113.82L147.826 113.829L147.836 126.845ZM167.604 130.675L160.813 109.973L165.783 109.969L171.684 128.305L169.199 128.307L175.338 109.962L179.776 109.958L185.706 128.295L183.31 128.297L189.331 109.951L193.916 109.947L187.157 130.66L182.01 130.664L176.762 114.575L178.122 114.574L172.751 130.671L167.604 130.675ZM203.411 131.003C201.755 131.004 200.167 130.788 198.648 130.355C197.129 129.903 195.906 129.322 194.978 128.613L196.603 125.003C197.491 125.633 198.536 126.155 199.74 126.568C200.963 126.962 202.195 127.158 203.438 127.157C204.384 127.156 205.144 127.067 205.715 126.889C206.307 126.691 206.741 126.425 207.016 126.089C207.292 125.754 207.43 125.369 207.43 124.935C207.429 124.383 207.212 123.949 206.778 123.634C206.344 123.299 205.772 123.033 205.062 122.837C204.351 122.62 203.562 122.424 202.695 122.247C201.846 122.05 200.988 121.814 200.12 121.539C199.272 121.263 198.493 120.909 197.783 120.476C197.072 120.042 196.49 119.471 196.036 118.761C195.601 118.052 195.384 117.145 195.383 116.04C195.382 114.857 195.697 113.782 196.327 112.815C196.977 111.828 197.943 111.049 199.224 110.476C200.526 109.883 202.152 109.586 204.105 109.585C205.406 109.584 206.688 109.74 207.951 110.055C209.213 110.35 210.328 110.802 211.295 111.413L209.818 115.053C208.852 114.501 207.885 114.098 206.918 113.842C205.952 113.567 205.005 113.43 204.078 113.43C203.151 113.431 202.392 113.54 201.801 113.757C201.209 113.975 200.785 114.261 200.529 114.616C200.273 114.952 200.145 115.346 200.145 115.8C200.146 116.332 200.363 116.766 200.797 117.101C201.231 117.416 201.804 117.672 202.514 117.869C203.224 118.065 204.003 118.262 204.851 118.459C205.719 118.655 206.577 118.881 207.425 119.137C208.293 119.393 209.082 119.737 209.793 120.171C210.503 120.604 211.075 121.175 211.51 121.885C211.964 122.595 212.191 123.492 212.192 124.576C212.193 125.74 211.869 126.805 211.218 127.772C210.568 128.739 209.593 129.519 208.292 130.111C207.01 130.704 205.383 131.001 203.411 131.003Z" fill="white"/>
</g>
<defs>
<filter id="filter0_f_2107_86" x="5.14984e-05" y="0.000600815" width="287.16" height="184.794" filterUnits="userSpaceOnUse" color-interpolation-filters="sRGB">
<feFlood flood-opacity="0" result="BackgroundImageFix"/>
<feBlend mode="normal" in="SourceGraphic" in2="BackgroundImageFix" result="shape"/>
<feGaussianBlur stdDeviation="14.0837" result="effect1_foregroundBlur_2107_86"/>
</filter>
<filter id="filter1_d_2107_86" x="70.4044" y="109.578" width="141.793" height="26.1497" filterUnits="userSpaceOnUse" color-interpolation-filters="sRGB">
<feFlood flood-opacity="0" result="BackgroundImageFix"/>
<feColorMatrix in="SourceAlpha" type="matrix" values="0 0 0 0 0 0 0 0 0 0 0 0 0 0 0 0 0 0 127 0" result="hardAlpha"/>
<feOffset dy="4.62231"/>
<feComposite in2="hardAlpha" operator="out"/>
<feColorMatrix type="matrix" values="0 0 0 0 0 0 0 0 0 0 0 0 0 0 0 0 0 0 0.25 0"/>
<feBlend mode="normal" in2="BackgroundImageFix" result="effect1_dropShadow_2107_86"/>
<feBlend mode="normal" in="SourceGraphic" in2="effect1_dropShadow_2107_86" result="shape"/>
</filter>
<linearGradient id="paint0_linear_2107_86" x1="107.245" y1="47.3867" x2="106.731" y2="102.277" gradientUnits="userSpaceOnUse">
<stop stop-color="white"/>
<stop offset="1" stop-color="#853FFC"/>
</linearGradient>
<linearGradient id="paint1_linear_2107_86" x1="184.036" y1="45.0762" x2="184.036" y2="101.7" gradientUnits="userSpaceOnUse">
<stop stop-color="white"/>
<stop offset="0.25" stop-color="#0AD6F8"/>
</linearGradient>
</defs>
</svg>
