<svg width="38" height="37" viewBox="0 0 38 37" fill="none" xmlns="http://www.w3.org/2000/svg">
<path fill-rule="evenodd" clip-rule="evenodd" d="M14.4074 16.5974C15.5399 17.7064 16.9618 18.261 18.6733 18.261C20.3848 18.261 21.8067 17.7064 22.9392 16.5974C24.0713 15.4881 24.6374 14.0951 24.6374 12.4186C24.6374 10.742 24.0713 9.34909 22.9392 8.23977C21.8067 7.13071 20.3848 6.57617 18.6733 6.57617C16.9618 6.57617 15.5399 7.13071 14.4074 8.23977C13.2753 9.34909 12.7092 10.742 12.7092 12.4186C12.7092 14.0951 13.2753 15.4881 14.4074 16.5974ZM6.22617 26.6693L6.22617 30.4796H8.81945V27.9393V26.6693C8.81945 26.3053 8.92097 25.9623 9.12401 25.6405C9.32706 25.3186 9.58858 25.0773 9.90857 24.9165C11.4645 24.1628 12.9468 23.6315 14.3557 23.3226C15.7646 23.0135 17.2038 22.8589 18.6733 22.8589C20.1428 22.8589 21.5733 23.0135 22.9648 23.3226C24.3566 23.6315 25.8391 24.1628 27.4123 24.9165C27.7321 25.0773 27.9979 25.3186 28.2097 25.6405C28.4213 25.9623 28.5271 26.3053 28.5271 26.6693V27.9393V30.4796H31.1204V26.6693C31.1204 25.7378 30.8815 24.9241 30.4035 24.2284C29.9259 23.5326 29.2911 23.0016 28.4991 22.6353C26.8063 21.8783 25.156 21.3029 23.5483 20.9092C21.9405 20.5154 20.3155 20.3186 18.6733 20.3186C17.031 20.3186 15.4016 20.5112 13.7851 20.8966C12.1688 21.2819 10.5136 21.8598 8.81945 22.6303C8.05006 22.9943 7.4255 23.5256 6.94577 24.2242C6.46603 24.9227 6.22617 25.7378 6.22617 26.6693ZM21.0783 14.7745C20.4344 15.4055 19.6328 15.721 18.6733 15.721C17.7138 15.721 16.9122 15.4055 16.2683 14.7745C15.6241 14.1438 15.3021 13.3585 15.3021 12.4186C15.3021 11.4787 15.6241 10.6934 16.2683 10.0626C16.9122 9.43164 17.7138 9.11615 18.6733 9.11615C19.6328 9.11615 20.4344 9.43164 21.0783 10.0626C21.7225 10.6934 22.0445 11.4787 22.0445 12.4186C22.0445 13.3585 21.7225 14.1438 21.0783 14.7745Z" fill="#853FFC"/>
<path d="M18.6733 15.721C19.6328 15.721 20.4344 15.4055 21.0783 14.7745C21.7225 14.1438 22.0445 13.3585 22.0445 12.4186C22.0445 11.4787 21.7225 10.6934 21.0783 10.0626C20.4344 9.43164 19.6328 9.11615 18.6733 9.11615C17.7138 9.11615 16.9122 9.43164 16.2683 10.0626C15.6241 10.6934 15.3021 11.4787 15.3021 12.4186C15.3021 13.3585 15.6241 14.1438 16.2683 14.7745C16.9122 15.4055 17.7138 15.721 18.6733 15.721Z" fill="white"/>
<path d="M28.5271 27.9393H8.81945V30.4796H28.5271V27.9393Z" fill="#853FFC"/>
</svg>
